<?xml version="1.0" encoding="utf-8"?>
<!-- Generator: Adobe Illustrator 26.0.1, SVG Export Plug-In . SVG Version: 6.00 Build 0)  -->
<svg version="1.1" id="Layer_1" xmlns="http://www.w3.org/2000/svg" xmlns:xlink="http://www.w3.org/1999/xlink" x="0px" y="0px"
	 width="36.7px" height="30px" viewBox="0 0 36.7 30" style="enable-background:new 0 0 36.7 30;" xml:space="preserve">
<style type="text/css">
	.st0{fill-rule:evenodd;clip-rule:evenodd;fill:#532F27;}
</style>
<path id="Cake" class="st0" d="M1.4,18.9c0.1,0,0.2,0,0.3,0c1.2-0.2,29.2-5.7,32.2-6.5c2.4-0.6,2.4-2.3,2.3-2.9
	C35.7,5.8,25.6,0,20.8,0c-1-0.1-1.9,0.3-2.7,0.9L0.5,16.4c-0.5,0.4-0.6,1.1-0.3,1.7C0.4,18.6,0.8,18.9,1.4,18.9z M20,3
	c0.3-0.1,0.6-0.2,0.9-0.2c3.9,0,11.6,4.9,12.5,6.8c-0.1,0-0.1,0-0.1,0c-2.1,0.5-18.5,3.8-27,5.5L20,3z M1.4,24.3c0.1,0,0.2,0,0.3,0
	l34-6.9c0.8-0.2,1.2-0.9,1-1.7c-0.2-0.7-0.9-1.2-1.6-1.1l-34,6.9c-0.8,0.2-1.2,0.9-1.1,1.7C0.1,23.8,0.7,24.3,1.4,24.3L1.4,24.3z
	 M35.1,20.3l-34,6.9c-0.8,0.2-1.2,0.9-1.1,1.7C0.1,29.5,0.7,30,1.4,30c0.1,0,0.2,0,0.3,0l34-6.9c0.8-0.2,1.2-0.9,1-1.7
	C36.5,20.7,35.8,20.2,35.1,20.3z"/>
</svg>
