<?xml version="1.0" encoding="utf-8"?>
<!-- Generator: Adobe Illustrator 26.0.1, SVG Export Plug-In . SVG Version: 6.00 Build 0)  -->
<svg version="1.1" id="Layer_1" xmlns="http://www.w3.org/2000/svg" xmlns:xlink="http://www.w3.org/1999/xlink" x="0px" y="0px"
	 width="38px" height="34px" viewBox="0 0 38 34" style="enable-background:new 0 0 38 34;" xml:space="preserve">
<style type="text/css">
	.st0{fill-rule:evenodd;clip-rule:evenodd;fill:#532F27;}
</style>
<path class="st0" d="M30.7,21.1c-2.4,0-4.5-1.2-5.9-3c-1.3,1.8-3.5,3-5.9,3s-4.5-1.2-5.9-3c-1.3,1.8-3.5,3-5.9,3
	c-4,0-7.3-3.2-7.3-7.2l0,0C0,6.2,8.5,0,19,0s19,6.2,19,13.9C38,17.8,34.7,21.1,30.7,21.1z M19,2.8c-8.9,0-16.2,5-16.2,11.1l0,0
	c0,2.5,2,4.5,4.5,4.5s4.5-2,4.5-4.4l0,0c0-0.8,0.6-1.4,1.4-1.4c0.8,0,1.4,0.6,1.4,1.4c0,2.5,2,4.5,4.5,4.5s4.5-2,4.5-4.5
	c0-0.8,0.6-1.4,1.4-1.4s1.4,0.6,1.4,1.4c0,2.5,2,4.5,4.5,4.5s4.5-2,4.5-4.5C35.2,7.7,27.9,2.8,19,2.8z M6.7,22.2
	c0.8-0.2,1.5,0.3,1.6,1.1l1.6,7.9h2.3l-1-7.5c-0.1-0.8,0.4-1.5,1.2-1.5c0.8-0.1,1.5,0.4,1.6,1.2l1,7.8h2.4v-7.4
	c0-0.8,0.6-1.4,1.4-1.4s1.4,0.6,1.4,1.4v7.4h2.4l1-7.8c0.1-0.8,0.8-1.3,1.6-1.2c0.8,0.1,1.3,0.8,1.2,1.5l-1,7.5H28l1.6-7.9
	c0.2-0.7,0.9-1.2,1.6-1.1c0.8,0.2,1.2,0.9,1.1,1.6l-1.8,9c-0.1,0.6-0.7,1.1-1.4,1.1H19H8.8c-0.7,0-1.2-0.5-1.4-1.1l-1.8-9
	C5.5,23.1,6,22.4,6.7,22.2z"/>
</svg>
