<?xml version="1.0" encoding="utf-8"?>
<!-- Generator: Adobe Illustrator 26.0.1, SVG Export Plug-In . SVG Version: 6.00 Build 0)  -->
<svg version="1.1" id="Layer_1" xmlns="http://www.w3.org/2000/svg" xmlns:xlink="http://www.w3.org/1999/xlink" x="0px" y="0px"
	 width="37px" height="37px" viewBox="0 0 37 37" style="enable-background:new 0 0 37 37;" xml:space="preserve">
<style type="text/css">
	.st0{fill-rule:evenodd;clip-rule:evenodd;fill:#532F27;}
</style>
<path id="Kids.svg" class="st0" d="M35.5,20.7c-0.7-0.2-1.5,0.3-1.6,1.1c-1.8,8.5-10.2,14-18.7,12.1c-6-1.3-10.8-6-12.1-12
	c-0.2-0.7-0.9-1.2-1.6-1s-1.2,0.9-1,1.6l0,0c2.2,10,12.1,16.3,22.1,14c7.1-1.6,12.6-7.1,14.1-14.2C36.8,21.6,36.3,20.9,35.5,20.7z
	 M36.8,19.3c0.1-0.1,0.2-0.3,0.2-0.5c0,0,0,0,0,0c0-0.1,0-0.2,0-0.3C37,8.3,28.8,0,18.6,0C8.3-0.1,0,8.2,0,18.4l0,0c0,0,0,0,0,0v0.1
	c0,0.1,0,0.3,0.1,0.4c0,0,0,0,0,0.1c0.1,0.2,0.1,0.3,0.2,0.4c0,0,0,0,0,0c0,0,0,0,0,0c0.1,0.1,0.2,0.2,0.4,0.3c0,0,0,0,0.1,0
	c0.1,0.1,0.3,0.1,0.4,0.1c0,0,0,0,0.1,0s0.1,0,0.1,0c0.1,0,0.3,0,0.4-0.1l0.1,0c0.2-0.1,0.3-0.1,0.4-0.2c0,0,0,0,0,0
	c1.1-0.9,1.1-0.8,1.9,0.1c1,1.6,3.2,2.1,4.8,1.1c0.3-0.2,0.6-0.5,0.9-0.8c0.7-0.6,0.9-0.8,1.6-0.6c0.4,3.9,3.9,6.7,7.8,6.3
	c3.4-0.4,6-3.1,6.3-6.4c0.6-0.5,0.8-0.3,1.5,0.4c0.7,0.9,1.8,1.5,2.9,1.6c1.1-0.1,2-0.6,2.7-1.3c0.9-0.8,1.1-1,2.1-0.2l0,0
	c0.1,0.1,0.3,0.2,0.5,0.2c0,0,0,0,0,0c0.1,0,0.2,0,0.3,0c0.1,0,0.1,0,0.2,0c0,0,0,0,0,0c0.2,0,0.3-0.1,0.4-0.2c0,0,0,0,0,0
	C36.5,19.6,36.7,19.4,36.8,19.3C36.8,19.3,36.8,19.3,36.8,19.3L36.8,19.3L36.8,19.3z M18.5,22.9c-2.4,0-4.4-1.9-4.4-4.3
	c0-2.4,1.9-4.4,4.3-4.4c2.4,0,4.4,1.9,4.4,4.3c0,0,0,0,0,0C22.9,20.9,20.9,22.9,18.5,22.9L18.5,22.9z M30.9,17.8
	c-0.2,0.3-0.5,0.5-0.9,0.6c-0.4-0.2-0.7-0.4-0.9-0.7c-0.9-1.2-2.4-1.8-3.8-1.4c-1.2-3.7-5.2-5.8-8.9-4.6c-2.2,0.7-4,2.5-4.6,4.8
	C10.3,16.3,9,16.8,8,17.8c-0.2,0.3-0.5,0.5-0.9,0.6c-0.4-0.2-0.7-0.4-0.9-0.7c-0.8-1-2-1.6-3.3-1.5C4.2,7.6,12.2,1.7,20.8,2.9
	c7,1,12.4,6.6,13.3,13.5C32.9,16.4,31.7,16.9,30.9,17.8z M18.6,4.3c-0.8,0-1.4,0.6-1.4,1.4c0,0.8,0.6,1.4,1.4,1.4S20,6.5,20,5.7
	c0,0,0,0,0,0C20,4.9,19.4,4.3,18.6,4.3z M21.5,7.8c-0.8,0-1.4,0.6-1.4,1.4c0,0.8,0.6,1.4,1.4,1.4c0.8,0,1.4-0.6,1.4-1.4
	C23,8.4,22.3,7.8,21.5,7.8L21.5,7.8z M27.2,7.6c0-0.8-0.6-1.4-1.4-1.4c-0.8,0-1.4,0.6-1.4,1.4C24.3,8.4,25,9,25.7,9c0,0,0,0,0,0
	C26.5,9,27.2,8.4,27.2,7.6z M26.2,10.9c-0.8,0-1.4,0.6-1.4,1.4c0,0.8,0.6,1.4,1.4,1.4c0.8,0,1.4-0.6,1.4-1.4
	C27.6,11.6,27,10.9,26.2,10.9L26.2,10.9z M30.7,12.1c-0.8,0-1.4,0.6-1.4,1.4S30,15,30.7,15c0.8,0,1.4-0.6,1.4-1.4
	C32.1,12.8,31.5,12.1,30.7,12.1z M15.7,7.8c-0.8,0-1.4,0.6-1.4,1.4s0.6,1.4,1.4,1.4c0.8,0,1.4-0.6,1.4-1.4c0,0,0,0,0,0
	C17.1,8.4,16.4,7.8,15.7,7.8z M11.5,6.2c-0.8,0-1.4,0.6-1.4,1.4C10,8.4,10.7,9,11.5,9c0.8,0,1.4-0.6,1.4-1.4
	C12.9,6.8,12.2,6.2,11.5,6.2L11.5,6.2z M11,10.9c-0.8,0-1.4,0.6-1.4,1.4c0,0.8,0.6,1.4,1.4,1.4c0.8,0,1.4-0.6,1.4-1.4
	C12.4,11.6,11.8,10.9,11,10.9C11,10.9,11,10.9,11,10.9L11,10.9z M6.5,12.1c-0.8,0-1.4,0.6-1.4,1.4S5.7,15,6.5,15
	c0.8,0,1.4-0.6,1.4-1.4C7.9,12.8,7.2,12.1,6.5,12.1C6.5,12.1,6.5,12.1,6.5,12.1L6.5,12.1z"/>
</svg>
