<svg width="19" height="19" viewBox="0 0 19 19" fill="none" xmlns="http://www.w3.org/2000/svg">
<path d="M18.9765 7.38212C18.7592 5.38656 17.0837 3.86893 15.0765 3.84969H15.0687C14.9277 3.85003 14.7868 3.85789 14.6467 3.87313C13.7839 1.15452 10.8807 -0.349932 8.162 0.512874C6.53635 1.02883 5.27024 2.31408 4.7788 3.94735C4.49797 3.8847 4.21104 3.85325 3.92327 3.85359C1.73566 3.87454 -0.0207633 5.66495 0.000185459 7.85261C0.0194251 9.85983 1.53706 11.5354 3.53262 11.7526V15.6083H15.4671V11.7487C17.642 11.512 19.2132 9.55698 18.9765 7.38212Z" fill="#532F27"/>
<path d="M15.0765 16.3857H3.53662V18.339C3.53662 18.5547 3.71154 18.7297 3.92727 18.7297H15.0804C15.2962 18.7297 15.4711 18.5547 15.4711 18.339V16.3857H15.0765Z" fill="#532F27"/>
</svg>
