<svg width="26" height="16" viewBox="0 0 26 16" fill="none" xmlns="http://www.w3.org/2000/svg">
<path d="M25.1116 12.6448C25.0165 12.4929 24.8502 12.3999 24.6714 12.3999H0.904756C0.725974 12.3999 0.559639 12.4929 0.465574 12.6448C0.371556 12.7967 0.362256 12.9868 0.442856 13.147C1.16826 14.5988 2.62627 15.4999 4.24859 15.4999H21.3275C22.9488 15.4999 24.4068 14.5988 25.1343 13.148C25.2129 12.9868 25.2057 12.7977 25.1116 12.6448Z" fill="#532F27"/>
<path d="M14.2051 2.17412C14.2898 1.98293 14.3384 1.77213 14.3384 1.55C14.3384 0.695417 13.643 0 12.7884 0C11.9338 0 11.2384 0.695417 11.2384 1.55C11.2384 1.77218 11.287 1.98298 11.3717 2.17412C6.68965 2.8179 2.99237 6.5875 2.51807 11.3667H23.0577C22.5834 6.58958 18.8851 2.8179 14.2051 2.17412ZM12.3058 5.16562C9.41557 5.3568 6.92627 7.24363 5.96628 9.9727C5.89188 10.1845 5.6914 10.3178 5.47857 10.3178C5.42175 10.3178 5.36387 10.3085 5.30705 10.2889C5.03837 10.1938 4.89683 9.89932 4.99085 9.62962C6.08825 6.50893 8.93303 4.3524 12.2376 4.13433C12.5115 4.11675 12.7677 4.33065 12.7874 4.61585C12.806 4.9011 12.591 5.14702 12.3058 5.16562Z" fill="#532F27"/>
</svg>
